<?xml version="1.0" standalone="no"?><!DOCTYPE svg PUBLIC "-//W3C//DTD SVG 1.1//EN" "http://www.w3.org/Graphics/SVG/1.1/DTD/svg11.dtd"><svg t="1710053654097" class="icon" viewBox="0 0 1024 1024" version="1.1" xmlns="http://www.w3.org/2000/svg" p-id="19313" xmlns:xlink="http://www.w3.org/1999/xlink" width="200" height="200"><path d="M827.136 43.776C457.813333 76.970667 216.405333 320.426667 106.069333 764.586667a42.666667 42.666667 0 0 0 69.973334 41.984c98.816-89.088 211.797333-136.021333 340.736-141.653334l25.941333-0.512c168.533333 0 271.018667-53.930667 291.669333-166.4a42.666667 42.666667 0 0 0-31.914666-49.152l-15.957334-4.010666c-51.370667-13.482667-84.48-27.306667-97.877333-37.802667l5.034667-4.437333c5.546667-4.608 13.141333-9.813333 22.784-15.36l10.325333-5.802667c90.026667-47.786667 182.272-120.405333 224.853333-180.053333 67.925333-95.146667 15.36-167.424-124.501333-157.610667zM705.109333 296.106667l-18.346666 10.069333c-73.045333 38.826667-107.946667 85.418667-76.629334 139.093333l5.290667 7.936c19.370667 26.026667 56.149333 46.08 111.786667 63.488l8.106666 2.474667-3.584 5.12c-27.136 33.536-81.92 52.309333-169.642666 54.613333l-47.530667 0.853334a606.378667 606.378667 0 0 0-283.562667 81.322666l-7.424 4.437334 6.485334-18.773334c113.493333-321.365333 313.856-491.776 603.904-517.802666l44.373333-3.072h9.557333c8.874667 0.512 9.642667 3.242667 5.546667 9.984l-11.178667 15.957333c-31.317333 43.861333-103.765333 102.4-177.152 144.213333zM449.024 852.906667c174.677333-44.117333 286.293333-38.912 457.130667 13.056a42.666667 42.666667 0 1 1-24.832 81.664c-146.773333-44.714667-240.298667-51.370667-382.293334-18.944l-29.098666 6.997333c-126.805333 32-245.077333 32-354.133334-0.512A42.666667 42.666667 0 0 1 140.202667 853.333333c93.610667 27.904 196.266667 27.904 308.906666-0.512z" fill="#3dd68c" p-id="19314"></path></svg>