<?xml version="1.0" standalone="no"?><!DOCTYPE svg PUBLIC "-//W3C//DTD SVG 1.1//EN" "http://www.w3.org/Graphics/SVG/1.1/DTD/svg11.dtd"><svg t="1710152137085" class="icon" viewBox="0 0 1024 1024" version="1.1" xmlns="http://www.w3.org/2000/svg" p-id="6882" width="155" height="155" xmlns:xlink="http://www.w3.org/1999/xlink"><path d="M0 0h1024v1024H0z" fill="#3dd68c" opacity=".01" p-id="6883"></path><path d="M855.73632 264.15104c58.1632-84.93056 10.8544-148.97152-104.8576-140.51328l-15.09376 1.55648c-293.2736 33.64864-486.48192 240.0256-575.3856 612.9664-4.13696 17.3056 3.072 35.38944 17.69472 44.544a37.4784 37.4784 0 0 0 45.85472-4.64896c79.68768-74.87488 170.76224-114.31936 274.78016-119.05024l21.03296-0.4096 12.67712-0.14336c133.5296-2.8672 212.13184-51.17952 228.59776-144.50688 3.70688-21.15584-9.05216-41.63584-29.02016-46.6944l-12.96384-3.3792-9.48224-2.6624-9.03168-2.72384c-23.40864-7.22944-41.5744-14.62272-52.67456-21.17632l-2.78528-1.7408 3.6864-2.99008a149.0944 149.0944 0 0 1 14.29504-9.60512l21.58592-12.43136c70.47168-41.24672 138.6496-99.04128 171.08992-146.39104z m-96.01024-132.4032c103.34208-4.58752 141.7216 51.07712 89.4976 127.30368-33.64864 49.11104-107.47904 110.40768-181.59616 151.40864l-8.47872 4.95616-5.61152 3.4816c-5.3248 3.4816-9.89184 6.81984-13.53728 9.99424l-4.1984 3.82976 0.18432 6.69696 3.42016 2.56c13.74208 9.4208 41.10336 20.2752 77.68064 30.26944l13.04576 3.39968 4.15744 1.39264c13.39392 5.5296 21.44256 20.23424 18.80064 35.30752-16.09728 91.3408-95.51872 137.58464-233.39008 137.58464l-21.1968 0.43008-15.0528 0.94208c-99.7376 7.7824-187.61728 47.7184-264.84736 120.27904-10.0352 9.4208-24.80128 10.89536-36.39296 3.66592a32.39936 32.39936 0 0 1-13.94688-34.97984c88.12544-369.62304 278.7328-573.25568 568.36096-606.47424l14.80704-1.55648 8.2944-0.49152z m56.87296 689.29536c-135.94624-43.08992-225.54624-47.75936-356.08576-15.70816l-34.9184 8.704c-84.19328 19.59936-161.44384 18.3296-232.36608-3.70688-20.48-6.36928-42.0864 5.79584-48.2304 27.2384-6.144 21.48352 5.57056 44.07296 26.112 50.46272 89.2928 27.72992 186.22464 27.8528 290.304 0.47104l23.63392-5.9392 15.83104-3.584c103.89504-22.69184 177.5616-17.12128 293.21216 19.59936a37.60128 37.60128 0 0 0 37.72416-9.13408 41.6768 41.6768 0 0 0 11.30496-38.83008 39.8336 39.8336 0 0 0-26.5216-29.57312z m-15.79008-627.79392c8.94976 0.53248 12.10368 5.12 9.0112 12.43136l-1.4336 2.8672-9.1136 13.55776c-24.064 35.10272-77.45536 81.24416-134.144 116.69504l-11.38688 6.94272-14.99136 8.56064c-59.20768 32.78848-81.44896 68.48512-63.44704 106.7008l2.58048 4.97664 4.17792 6.5536c13.66016 19.1488 39.05536 34.87744 78.70464 48.86528l10.19904 3.46112 6.59456 2.08896 2.1504 6.656-3.09248 4.58752c-22.016 28.34432-64.4096 44.032-128.77824 47.39072l-12.32896 0.49152-38.62528 0.7168a474.27584 474.27584 0 0 0-214.81472 60.2112l-14.04928 8.17152-6.0416 3.74784-5.85728-5.16096 5.28384-15.95392C352.21504 369.8688 511.56992 224.0512 742.1952 197.34528l14.21312-1.49504 36.39296-2.60096h8.00768z m1.14688 8.6016h-8.84736l-36.0448 2.60096c-230.15424 21.52448-389.75488 160.09216-482.304 419.88096l-7.3728 21.34016 10.91584-6.30784a482.5088 482.5088 0 0 1 202.05568-60.35456l16.34304-0.86016 38.64576-0.7168c65.1264-1.78176 108.19584-15.2576 130.8672-39.79264l3.54304-4.21888-1.10592-0.3072c-43.4176-14.15168-72.23296-30.16704-89.14944-50.3808l-3.97312-5.14048-4.44416-6.9632c-24.59648-43.9296-3.25632-84.41856 56.27904-119.6032l22.528-12.88192c56.07424-33.36192 110.71488-78.7456 137.80992-114.15552l5.03808-6.9632 9.74848-14.52032 0.69632-0.8192-1.2288 0.18432z" fill="#3dd68c" p-id="6884"></path><path d="M858.05056 259.95264c28.16-41.10336 31.82592-78.0288 12.86144-103.69024-18.8416-25.4976-59.392-38.87104-117.1456-34.65216h-0.06144c-152.43264 14.27456-278.54848 73.78944-377.93792 177.52064-99.328 103.69024-171.8272 251.45344-217.2928 442.10176-3.91168 16.42496 2.90816 33.64864 16.91648 42.3936 14.0288 8.8064 31.92832 6.9632 44.07296-4.42368 80.97792-76.06272 173.48608-116.10112 279.08096-120.91392l21.2992-0.43008c69.5296 0 125.68576-11.59168 166.66624-35.45088 41.08288-23.92064 66.7648-60.1088 75.3664-108.91264 3.54304-20.0704-8.58112-39.64928-27.77088-44.50304l-13.1072-3.42016a454.5536 454.5536 0 0 1-51.75296-17.08032c-11.93984-4.9152-20.66432-9.50272-26.15296-13.5168l2.33472-2.12992c4.44416-3.82976 10.58816-8.23296 18.432-12.92288l8.45824-4.95616c74.24-41.0624 150.44608-103.5264 185.73312-155.01312z m-98.34496-61.2352l36.41344-2.62144h7.72096c1.72032 0.1024 2.8672 0.3072 3.64544 0.57344 0.73728 0.26624 0.83968 0.512 0.86016 0.53248 0 0.04096 0.12288 0.3072-0.1024 1.1264a15.29856 15.29856 0 0 1-1.51552 3.19488l-9.15456 13.6192c-25.53856 37.25312-84.86912 87.2448-145.14176 123.04384l-1.024 0.59392v0.04096l-14.04928 8.04864c-30.16704 16.71168-52.75648 35.2256-64.512 55.6032-11.83744 20.54144-12.55424 42.8032 0.67584 66.43712l4.4032 6.90176 0.06144 0.1024c16.34304 22.87616 47.16544 40.2432 93.06112 55.1936l4.05504 1.29024-1.37216 2.048c-21.77024 27.97568-66.00704 44.032-138.0352 45.99808l-39.07584 0.73728h-0.04096a486.1952 486.1952 0 0 0-234.35264 70.02112h-0.02048l-1.31072 0.8192 3.56352-10.71104c46.61248-137.54368 111.02208-242.60608 193.4336-316.06784 82.37056-73.44128 182.84544-115.4048 301.79328-126.52544h0.02048z" fill="#3dd68c" p-id="6885"></path><path d="M632.07424 790.09792c-56.85248-1.90464-114.01216 5.87776-182.8864 23.552l0.12288-0.12288-7.04512 1.8432c-92.40576 24.28928-176.47616 24.2688-253.09184 0.47104-19.7632-6.144-40.448 5.61152-46.2848 26.0096-5.85728 20.39808 5.26336 41.94304 24.9856 48.08704 90.15296 27.99616 187.904 27.97568 292.57728 0.45056l23.90016-5.98016c58.28608-13.86496 106.53696-19.3536 155.2384-16.62976 48.72192 2.72384 97.97632 13.68064 158.28992 32.82944a36.1472 36.1472 0 0 0 36.2496-8.76544c9.68704-9.44128 13.78304-23.51104 10.79296-36.92544a38.07232 38.07232 0 0 0-25.37472-28.24192c-70.41024-22.3232-128.7168-34.6112-187.47392-36.57728z" fill="#3dd68c" p-id="6886"></path></svg>